<svg width="1022" height="189" viewBox="0 0 1022 189" fill="none" xmlns="http://www.w3.org/2000/svg">
<path d="M304.096 102.309L303.768 102.104C303.206 110.131 302.951 118.219 302.746 126.226C302.409 138.086 303.359 150.265 307.479 161.459C307.949 160.947 308.379 160.434 308.798 159.85C312.365 155.206 315.8 150.357 317.916 144.893C323.712 129.814 317.63 111.044 304.096 102.309Z" fill="#FF8601"/>
<path d="M326.145 183.838C328.946 179.819 332.023 175.934 334.589 171.772C343.309 157.646 345.885 140.342 344.372 123.796C342.859 107.25 337.482 91.3096 331.236 75.9327C327.689 67.1678 321.474 53.5131 321.535 41.7139C317.712 45.8144 315.116 50.94 313.03 56.1272C307.194 70.725 304.853 86.3172 303.769 102.084L304.096 102.289C317.63 111.043 323.713 129.813 317.886 144.873C315.77 150.337 312.335 155.185 308.768 159.829C308.349 160.372 307.919 160.926 307.449 161.439C309.108 166.012 311.334 170.359 314.073 174.376C315.851 177.128 318.121 179.526 320.769 181.449C322.406 182.557 324.227 183.366 326.145 183.838Z" fill="#FFBE00"/>
<path d="M337.329 62.0625C335.141 56.1988 335.959 49.5354 338.351 43.7742C338.627 43.1079 338.964 42.3391 339.373 41.519C337.565 39.8761 335.391 38.6898 333.034 38.0586C330.676 37.4275 328.203 37.3697 325.818 37.89C324.501 38.8504 323.26 39.913 322.108 41.0679C321.903 41.2729 321.709 41.4985 321.515 41.7137C321.453 53.513 327.648 67.1677 331.216 75.9325C337.461 91.3095 342.828 107.26 344.351 123.796C345.874 140.331 343.329 157.625 334.568 171.772C332.003 175.934 328.926 179.819 326.125 183.838L327.147 184.073L327.239 183.95C334.63 186.001 343.952 181.982 348.368 175.688C354.798 166.523 356.546 153.709 357.426 140.618C358.862 120.529 358.018 100.341 354.911 80.4431C348.052 74.9894 340.334 70.1303 337.329 62.0625Z" fill="#00E4B3"/>
<path d="M354.38 77.4494C352.336 66.0808 349.075 55.9217 345.108 48.8586C343.631 46.1059 341.699 43.6241 339.394 41.5187C339.016 42.3388 338.679 43.1076 338.372 43.7739C335.929 49.5352 335.111 56.1985 337.35 62.0622C340.355 70.13 348.073 74.9891 354.912 80.4428C354.728 79.4484 354.554 78.4438 354.38 77.4494Z" fill="#008DDC"/>
<path d="M477.168 185.908H340.609C332.962 185.908 326.594 185.447 320.767 181.449C318.119 179.525 315.85 177.127 314.072 174.375C304.269 160.106 302.234 142.832 302.715 126.194C303.41 102.463 304.207 78.1568 313.029 56.1166C315.227 50.6321 317.966 45.2399 322.127 41.0471C328.567 34.5683 337.644 31.6262 346.384 28.9814C386.394 16.8951 424.891 10.6213 465.79 2C460.066 15.1627 456.161 24.1223 449.987 37.0799C449.987 37.0799 468.111 36.6699 481.839 38.7509C495.568 40.8319 507.201 45.691 517.852 57.1519C531.213 71.5037 536.201 91.6783 536.958 111.31C537.714 130.941 535.261 148.798 523.781 164.708C518.179 172.479 507.323 185.908 477.168 185.908Z" stroke="#2C2B2A" stroke-width="3" stroke-linecap="round" stroke-linejoin="round"/>
<path d="M407.257 91.4421L416.641 89.6173" stroke="#2C2B2A" stroke-width="3" stroke-linecap="round" stroke-linejoin="round"/>
<path d="M404.529 57.9823L413.923 56.1576" stroke="#2C2B2A" stroke-width="3" stroke-linecap="round" stroke-linejoin="round"/>
<path d="M438.834 57.6543C445.99 57.6543 450.549 66.5524 450.345 72.7442C450.14 78.9359 446.092 84.5536 441.094 85.8761" stroke="#2C2B2A" stroke-width="3" stroke-linecap="round" stroke-linejoin="round"/>
<path opacity="0.85" d="M354.378 77.4499C353.262 70.9882 351.599 64.6334 349.409 58.4542C329.905 67.5881 265.587 108.757 265.587 108.757C265.667 109.07 265.722 109.389 265.751 109.711C266.405 115.154 266.926 120.772 265.965 126.113C269.686 128.163 273.305 130.326 277.046 132.428C284.999 136.887 292.972 141.356 301.355 145.088C306.466 147.353 340.629 166.616 350.769 171.628C355.236 162.925 356.626 151.874 357.403 140.618C358.303 127.517 359.039 103.642 354.378 77.4499Z" fill="#FFE29D"/>
<path d="M211.839 141.663C212.309 152.232 214.098 186 214.098 186H236.117C234.573 184.524 230.341 180.987 230.341 178.722C230.341 176.456 228.706 143.744 227.356 126.44" stroke="#2C2B2A" stroke-width="2" stroke-linecap="round" stroke-linejoin="round"/>
<path d="M217.87 121.161C221.509 123.283 232.181 129.362 233.531 129.362C234.553 129.362 244.888 127.917 244.888 127.917C244.888 127.917 247.791 130.818 250.97 130.633C251.78 130.643 252.584 130.489 253.334 130.181C254.084 129.872 254.764 129.416 255.335 128.839C255.838 128.151 256.167 127.349 256.292 126.504C256.416 125.659 256.334 124.796 256.05 123.991C255.471 122.384 254.631 120.885 253.566 119.552C252.452 117.983 252.81 117.544 250.97 117C249.85 116.77 248.695 116.77 247.576 117C245.225 117.298 233.091 116.538 233.091 116.538L226.171 110.059C226.171 110.059 224.627 98.2394 224.239 95C226.355 94.4567 228.583 93.8006 230.699 93.2675C226.61 87.4858 220.375 82.4319 213.321 82.4216C207.392 82.4216 205.092 85.2715 204.847 88.9005C204.397 95.6971 204.029 103.129 203.988 109.936C203.855 131.464 198.213 154.017 182.113 167.835C181.469 168.396 181.072 169.189 181.009 170.041C180.946 170.894 181.221 171.737 181.775 172.387C185.864 177.267 189.125 183.51 196.608 182.454C195.964 182.546 195.81 178.63 195.862 178.22C196.035 176.569 196.608 176.077 197.62 174.95C199.777 172.52 201.831 169.988 203.753 167.384C207.188 162.74 210.776 157.584 212.32 151.946" stroke="#2C2B2A" stroke-width="2" stroke-linecap="round" stroke-linejoin="round"/>
<path d="M327.248 183.95C334.639 186.001 343.962 181.982 348.378 175.688C354.808 166.523 356.556 153.709 357.435 140.618C358.314 127.527 359.07 103.642 354.368 77.4498C352.324 66.0811 349.063 55.9221 345.096 48.8589C341.948 43.2412 336.111 35.9013 325.828 37.8901" stroke="#2C2B2A" stroke-width="3" stroke-linecap="round" stroke-linejoin="round"/>
<path d="M265.751 109.711C265.754 108.994 265.495 108.302 265.025 107.763C264.52 107.387 263.891 107.219 263.267 107.291C260.92 107.497 257.845 111.178 256.244 112.911C254.261 114.841 253.375 114.368 251.838 116.671C251.838 116.938 251.838 117.194 251.838 117.45C252.454 118.116 253.021 118.825 253.535 119.572C254.6 120.905 255.44 122.405 256.019 124.011C256.277 124.853 256.354 125.741 256.244 126.615C257.941 128.075 257.172 127.062 259.311 127.712C259.68 127.816 262.817 129.945 263.197 129.895C263.577 129.845 263.943 129.718 264.273 129.521C264.603 129.324 264.89 129.063 265.116 128.752C265.341 128.441 265.502 128.087 265.587 127.712C267.049 121.9 266.467 115.697 265.751 109.711Z" fill="#2C2B2A"/>
<path d="M218.33 90.435L218.217 89.9115" stroke="#2C2B2A" stroke-width="1.5" stroke-linecap="round" stroke-linejoin="round"/>
<path d="M217.491 96.6257C218.636 98.1019 221.222 98.922 223.972 98.676" stroke="#2C2B2A" stroke-width="1.5" stroke-linecap="round" stroke-linejoin="round"/>
<path d="M924 187L2 187" stroke="url(#paint0_linear_310_23348)" stroke-width="2.64243" stroke-linecap="round" stroke-linejoin="round"/>
<path d="M924 187L1020 187" stroke="url(#paint1_linear_310_23348)" stroke-width="2.64243" stroke-linecap="round" stroke-linejoin="round"/>
<defs>
<linearGradient id="paint0_linear_310_23348" x1="293.285" y1="187" x2="2" y2="187" gradientUnits="userSpaceOnUse">
<stop stop-color="#2C2B2A"/>
<stop offset="1" stop-color="#2C2B2A" stop-opacity="0"/>
</linearGradient>
<linearGradient id="paint1_linear_310_23348" x1="989.671" y1="187" x2="1020" y2="187" gradientUnits="userSpaceOnUse">
<stop stop-color="#2C2B2A"/>
<stop offset="1" stop-color="#2C2B2A" stop-opacity="0"/>
</linearGradient>
</defs>
</svg>
