<svg width="2160" height="3840" viewBox="0 0 2160 3840" fill="none" xmlns="http://www.w3.org/2000/svg">
<g clip-path="url(#clip0_9_726)">
<rect width="2160" height="3840" fill="#FEF0C7"/>
<path d="M3786.17 255.947C3599.87 130.584 3357.76 78.2584 3130.04 93.738C2795.26 116.303 2482.08 259.218 2177.39 399.733L1967.76 496.535C1696.87 621.462 1401.55 749.549 1109.95 686.432C870.888 634.651 679.139 463.286 470.928 334.871C96.0382 103.876 -359.737 9.79993 -796 65.7227V1291.01C-389.388 1471.42 77.0289 1495.58 502.391 1364.01C903.552 1221.95 1167.78 1731.2 1583 1669.06C1961.92 1612.37 2448.93 1269.08 2757 1514.7C2888.58 1611.83 3013.4 1429.23 3152.82 1514.7C3343.03 1630.08 3564.2 1683.99 3786.17 1669.06V255.947Z" fill="#FEF0C7"/>
<path d="M3786.17 333.947C3599.87 208.584 3357.76 156.258 3130.04 171.738C2795.26 194.303 2482.08 337.218 2177.39 477.733L1967.76 574.535C1696.87 699.462 1401.55 827.549 1109.95 764.432C870.888 712.651 679.139 541.286 470.928 412.871C96.0382 181.876 -359.737 87.7999 -796 143.723V1369.01C-389.388 1549.42 77.0289 1573.58 502.391 1442.01C903.552 1299.95 1167.78 1809.2 1583 1747.06C1961.92 1690.37 2448.93 1347.08 2757 1592.7C2888.58 1689.83 3013.4 1507.23 3152.82 1592.7C3343.03 1708.08 3564.2 1761.99 3786.17 1747.06V333.947Z" fill="#FEDF89"/>
<path d="M193.001 1490.44C195.089 1491.25 200.448 1492.75 202.515 1493.53" stroke="#4D2F50" stroke-width="15.8868" stroke-linecap="round" stroke-linejoin="round"/>
<path d="M3746.17 893.947C3559.87 768.584 3317.76 716.258 3090.04 731.738C2755.26 754.303 2442.08 897.218 2137.39 1037.73L1927.76 1134.54C1617 1220 1387.1 1570.12 1095.5 1507C856.438 1455.22 375.211 1317.41 167 1189C-207.89 958.005 -399.737 647.8 -836 703.723V1929.01C-429.388 2109.42 -5.86169 2755.08 419.5 2623.5C820.661 2481.45 1109.78 2685.64 1525 2623.5C1903.92 2566.81 2408.93 1907.08 2717 2152.7C2848.58 2249.83 2973.4 2067.23 3112.82 2152.7C3303.03 2268.08 3524.2 2321.99 3746.17 2307.06V893.947Z" fill="#FEC84B"/>
<path d="M3496.17 1923.95C3309.87 1798.58 3067.76 1746.26 2840.04 1761.74C2505.26 1784.3 2192.08 1927.22 1887.39 2067.73L1677.76 2164.54C1406.87 2289.46 1111.55 2417.55 819.95 2354.43C580.888 2302.65 389.139 2131.29 180.928 2002.87C-193.962 1771.88 -649.737 1677.8 -1086 1733.72V3903.5C-679.388 4083.91 -212.971 4108.08 212.391 3976.5C613.552 3834.44 877.776 4343.69 1293 4281.55C1671.92 4224.86 2158.93 3881.57 2467 4127.19C2598.58 4224.32 2723.4 4041.73 2862.82 4127.19C3053.03 4242.57 3274.2 4296.48 3496.17 4281.55V1923.95Z" fill="#FDB022"/>
<path d="M1126.37 1724.18L678.676 1558.14L729.079 1928.75C805.177 1942.59 957.374 1976.78 957.374 2002.87C957.374 2028.96 880.287 2047.35 841.744 2053.28C886.217 2059.21 976.349 2077 981.093 2100.71C985.837 2124.43 890.17 2158.04 841.744 2171.87C880.287 2181.75 957.374 2205.67 957.374 2222.27C957.374 2238.88 894.123 2250.93 862.498 2254.89C880.287 2261.81 915.866 2279.79 915.866 2296.4C915.866 2313 900.053 2323.08 892.147 2326.04L1170.84 2287.5L1485.12 2326.04C1478.2 2320.11 1462.59 2304.1 1455.47 2287.5C1448.36 2270.9 1472.27 2248.96 1485.12 2240.06C1455.47 2237.1 1396.17 2226.42 1396.17 2207.45C1396.17 2188.47 1463.38 2165.94 1496.98 2157.05C1456.46 2154.08 1374.83 2142.22 1372.46 2118.5C1370.08 2094.78 1440.65 2069.09 1476.23 2059.21L1390.25 2041.42C1381.35 2035.49 1367.71 2019.48 1384.32 2002.87C1400.92 1986.27 1567.15 1960.38 1648.19 1949.51C1654.12 1911.95 1665.98 1829.72 1665.98 1801.26C1665.98 1772.8 1685.74 1585.81 1695.63 1495.88L1511.8 1558.14L1126.37 1724.18Z" fill="#66A9CE" stroke="#323130" stroke-width="18.0399"/>
<path d="M356.189 2325.62H898.817L1170.84 2284.53L1473.26 2325.62H1936.23" stroke="#323130" stroke-width="18.0399" stroke-linecap="round" stroke-linejoin="round"/>
<path d="M200 1924.3C330.586 1924.3 367.654 1924.3 425.054 1924.3C462.945 1924.3 532.916 1921.87 577.686 1903.48C622.455 1885.1 688.572 1836 712.647 1817.74" stroke="#323130" stroke-width="18.0399" stroke-linecap="round" stroke-linejoin="round"/>
<path d="M695.807 1936.03C839.188 1925.12 1140.89 1996.16 801.238 2051.84C846.481 2060.44 1043.65 2065.84 964.543 2122.35C920.959 2153.48 849.209 2151.05 800.23 2168.78C849.446 2180.34 906.965 2174.71 949.481 2203.29C997.512 2235.61 839.366 2253.45 810.962 2255.06C908.862 2242.84 980.494 2319.63 830.471 2325.32" stroke="#323130" stroke-width="18.0399" stroke-linecap="round" stroke-linejoin="round"/>
<path d="M1702.02 1945.17C1597.54 1954.9 1486.89 1966.16 1388.34 2003.88C1294.53 2039.45 1469.7 2063.17 1553.72 2061.81C1502.01 2062.52 1449.95 2068.1 1401.74 2086.77C1353.35 2103.61 1359.22 2148.15 1410.93 2148.62C1439.63 2150.82 1515.89 2156.63 1516.36 2156.8C1525.91 2159.59 1473.79 2170.03 1458.55 2175.31C1436.37 2181.89 1394.74 2190.72 1394.74 2213.08C1398.78 2251.44 1538.42 2239.58 1570.98 2242.73C1533.38 2252.45 1478.77 2247.47 1453.09 2279.55C1442.06 2306.17 1476.81 2321.06 1497.57 2325.51" stroke="#323130" stroke-width="18.0399" stroke-linecap="round" stroke-linejoin="round"/>
<path d="M1664.49 1804.28C1702.91 1822.9 1759.37 1864.17 1824.06 1923.88C1824.06 1923.88 1820.63 1914.87 1959.5 1910.72" stroke="#323130" stroke-width="18.0399" stroke-linecap="round" stroke-linejoin="round"/>
<path d="M728.538 1934.73L676.652 1552.97L1011.62 1684.37C1057.94 1702.52 1106.5 1721.02 1156.07 1714.79C1195.56 1709.81 1231.14 1689.41 1266.13 1670.44C1405.09 1594.96 1552.08 1535.29 1704.34 1492.55C1677.48 1643.41 1661.45 1795.99 1656.36 1949.14" stroke="#323130" stroke-width="18.0399" stroke-linecap="round" stroke-linejoin="round"/>
<path d="M1135.27 1727.13C1144.81 1904.61 1162.07 2101.18 1172.33 2278.6" stroke="#323130" stroke-width="18.0399" stroke-linecap="round" stroke-linejoin="round"/>
<path d="M767.674 1581.79L750.834 1433.25C888.299 1497.03 1009.5 1591.17 1105.31 1708.57" fill="white"/>
<path d="M767.674 1581.79L750.834 1433.25C888.299 1497.03 1009.5 1591.17 1105.31 1708.57" stroke="#323130" stroke-width="18.0399" stroke-linecap="round" stroke-linejoin="round"/>
<path d="M847.311 1484.08C854.426 1454.43 862.431 1422.53 860.297 1396.56C880.776 1407.77 900.576 1420.19 919.594 1433.74C1008.05 1501.05 1078.36 1589.33 1124.17 1690.61L1133.78 1692.87" fill="white"/>
<path d="M847.311 1484.08C854.426 1454.43 862.431 1422.53 860.297 1396.56C880.776 1407.77 900.576 1420.19 919.594 1433.74C1008.05 1501.05 1078.36 1589.33 1124.17 1690.61L1133.78 1692.87" stroke="#323130" stroke-width="18.0399" stroke-linecap="round" stroke-linejoin="round"/>
<path d="M1142.79 1688.47C1210.61 1554.19 1318.69 1444.44 1451.91 1374.55L1452.44 1460.24" fill="white"/>
<path d="M1142.79 1688.47C1210.61 1554.19 1318.69 1444.44 1451.91 1374.55L1452.44 1460.24" stroke="#323130" stroke-width="18.0399" stroke-linecap="round" stroke-linejoin="round"/>
<path d="M1140.18 1708.57C1203.93 1634.98 1314.1 1539.1 1398.01 1490C1467.16 1449.11 1541.49 1417.7 1619.01 1396.61C1622.92 1432.54 1619.9 1518.7 1619.9 1518.7" fill="white"/>
<path d="M1140.18 1708.57C1203.93 1634.98 1314.1 1539.1 1398.01 1490C1467.16 1449.11 1541.49 1417.7 1619.01 1396.61C1622.92 1432.54 1619.9 1518.7 1619.9 1518.7" stroke="#323130" stroke-width="18.0399" stroke-linecap="round" stroke-linejoin="round"/>
<path d="M1131.75 1496.02C1099.21 1351.36 1161.12 1221.13 1197.31 1110.31C1224.4 1027.42 1228.97 925.923 1200.18 841.893C1183.72 794.109 1156.42 744.923 1127.18 703.634C1111.3 681.175 1074.44 631.896 1054.49 621.712" stroke="#338DBE" stroke-width="18.0399" stroke-linecap="round" stroke-linejoin="round"/>
<path d="M1027.61 799.481C1010.89 764.24 988.573 731.571 961.692 702.98" stroke="#E6F1F7" stroke-width="18.0399" stroke-linecap="round" stroke-linejoin="round"/>
<path d="M1039.34 1404.36C1019.94 1356.3 1014.58 1287.77 1032.54 1212.79C1054.84 1118.43 1061.86 1020.82 1053.36 923.654" stroke="#338DBE" stroke-width="18.0399" stroke-linecap="round" stroke-linejoin="round"/>
<path d="M1383.05 1000.65C1400.53 912.311 1383.04 822.937 1332.6 743.428" stroke="#338DBE" stroke-width="18.0399" stroke-linecap="round" stroke-linejoin="round"/>
<path d="M1265.85 1309.9C1276.57 1253.54 1301.78 1186.6 1337.47 1120.91" stroke="#338DBE" stroke-width="18.0399" stroke-linecap="round" stroke-linejoin="round"/>
<path d="M956.457 1212.88C958.828 1213.8 964.89 1215.47 967.26 1216.39" stroke="#4D2F50" stroke-width="18.0399" stroke-linecap="round" stroke-linejoin="round"/>
<path d="M1039.05 854.675C1040.89 855.967 1045.42 858.895 1047.38 860.144" stroke="#FFB102" stroke-width="18.0399" stroke-linecap="round" stroke-linejoin="round"/>
<path d="M1136.9 1014.28C1139.28 1015.2 1145.36 1016.9 1147.71 1017.79" stroke="#4D2F50" stroke-width="18.0399" stroke-linecap="round" stroke-linejoin="round"/>
<path d="M1190.73 1357.14C1193.11 1358.06 1199.01 1359.86 1201.54 1360.66" stroke="#FFB102" stroke-width="18.0399" stroke-linecap="round" stroke-linejoin="round"/>
<path d="M1357.53 1064.95C1359.91 1065.86 1365.96 1067.56 1368.34 1068.47" stroke="#FFB102" stroke-width="18.0399" stroke-linecap="round" stroke-linejoin="round"/>
<path d="M1278.82 838.047C1281.17 838.946 1287.27 840.664 1289.62 841.563" stroke="#4D2F50" stroke-width="18.0399" stroke-linecap="round" stroke-linejoin="round"/>
<path d="M1674.56 346V366.294" stroke="#323130" stroke-width="5.47755" stroke-linecap="round" stroke-linejoin="round"/>
<path d="M1664 355.695C1670.9 356.33 1677.83 356.43 1684.75 355.997" stroke="#323130" stroke-width="5.47755" stroke-linecap="round" stroke-linejoin="round"/>
<path d="M287.559 518V538.294" stroke="#323130" stroke-width="5.47755" stroke-linecap="round" stroke-linejoin="round"/>
<path d="M277 527.695C283.897 528.33 290.833 528.43 297.746 527.997" stroke="#323130" stroke-width="5.47755" stroke-linecap="round" stroke-linejoin="round"/>
<path d="M1984.56 799V819.294" stroke="#323130" stroke-width="5.47755" stroke-linecap="round" stroke-linejoin="round"/>
<path d="M1974 808.695C1980.9 809.33 1987.83 809.43 1994.75 808.997" stroke="#323130" stroke-width="5.47755" stroke-linecap="round" stroke-linejoin="round"/>
<path d="M1633.56 1089V1109.29" stroke="#323130" stroke-width="5.47755" stroke-linecap="round" stroke-linejoin="round"/>
<path d="M1623 1098.69C1629.9 1099.33 1636.83 1099.43 1643.75 1099" stroke="#323130" stroke-width="5.47755" stroke-linecap="round" stroke-linejoin="round"/>
<path fill-rule="evenodd" clip-rule="evenodd" d="M1949.05 1457.89C1926.2 1463.94 1915.9 1490.79 1928.33 1506.72C1951.18 1536.06 2000.28 1502.28 1978.6 1472.28C1974.95 1467.23 1969.26 1466.71 1972.56 1471.71C1989.55 1497.55 1946.05 1531.02 1931.98 1503.73C1923.24 1486.75 1942.67 1455.96 1968.43 1463.94C1971.95 1466.79 1973.39 1465.26 1970.39 1461.88C1966.48 1457.54 1957.05 1455.78 1949.05 1457.89Z" fill="#323130"/>
<path fill-rule="evenodd" clip-rule="evenodd" d="M189.815 1059.47C181.439 1060.7 173.027 1067.5 168.395 1076.75C162.428 1088.71 160.131 1099.94 163.688 1099.94C163.911 1099.94 164.281 1098.49 164.541 1096.52C164.948 1093.4 166.727 1087.04 167.098 1087.41C167.172 1087.49 166.987 1088.64 166.69 1089.94C161.724 1111.04 188.481 1123.01 208.9 1108.85C236.879 1089.49 223.353 1054.53 189.815 1059.47ZM202.081 1062.11C203.526 1062.33 203.6 1063.3 200.228 1063.49C195.966 1063.75 188.703 1065.27 184.293 1067.8C181.625 1069.32 180.772 1067.8 183.033 1066.23C188.481 1062.52 195.559 1061.07 202.081 1062.11ZM204.379 1067.05C208.084 1067.72 211.976 1069.76 214.162 1072.18C230.616 1090.5 196.708 1120.22 179.29 1102.76C164.689 1088.19 182.329 1063.11 204.379 1067.05ZM175.955 1103.46C179.883 1107.33 185.219 1109.86 191.223 1110.71C194.373 1111.16 194.41 1111.3 191.593 1111.79C172.657 1115.09 171.285 1096.48 171.248 1096.41C171.915 1097.56 172.842 1100.42 175.955 1103.46Z" fill="#323130"/>
<path fill-rule="evenodd" clip-rule="evenodd" d="M642.815 290.473C634.439 291.699 626.027 298.499 621.395 307.751C615.428 319.715 613.131 330.936 616.688 330.936C616.911 330.936 617.281 329.487 617.541 327.518C617.948 324.396 619.727 318.043 620.098 318.414C620.172 318.489 619.987 319.64 619.69 320.941C614.724 342.046 641.481 354.01 661.9 339.853C689.879 320.495 676.353 285.531 642.815 290.473ZM655.081 293.111C656.526 293.334 656.6 294.3 653.228 294.486C648.966 294.746 641.703 296.269 637.293 298.796C634.625 300.319 633.772 298.796 636.033 297.235C641.481 293.52 648.559 292.071 655.081 293.111ZM657.379 298.053C661.084 298.722 664.976 300.765 667.162 303.18C683.616 321.498 649.708 351.223 632.29 333.76C617.689 319.195 635.329 294.114 657.379 298.053ZM628.955 334.466C632.883 338.33 638.219 340.857 644.223 341.711C647.373 342.157 647.41 342.306 644.593 342.789C625.657 346.096 624.285 327.48 624.248 327.406C624.915 328.558 625.842 331.419 628.955 334.466Z" fill="#323130"/>
<path d="M1970 283.438C1972.09 284.251 1977.45 285.749 1979.51 286.535" stroke="#4D2F50" stroke-width="15.8868" stroke-linecap="round" stroke-linejoin="round"/>
</g>
<defs>
<clipPath id="clip0_9_726">
<rect width="2160" height="3840" fill="white"/>
</clipPath>
</defs>
</svg>
